<svg width="48" height="46" viewBox="0 0 48 46" fill="none" xmlns="http://www.w3.org/2000/svg">
<g clip-path="url(#clip0_101_2781)">
<path fill-rule="evenodd" clip-rule="evenodd" d="M36.5134 41.1331V27.106H30.2036C27.5293 27.5857 24.8541 29.0351 22.1789 30.7201H17.2785C15.0606 30.8533 13.8991 33.1019 16.0536 34.5792C17.7721 35.8386 20.0393 35.7678 22.3634 35.5591C23.9655 35.48 24.0354 37.6345 22.3634 37.6419C21.7831 37.6866 21.1506 37.5506 20.6001 37.5506C17.6995 37.5478 15.3102 36.9927 13.8478 34.7013L13.1129 32.9864L5.82316 29.3723C2.1755 28.1707 -0.416794 31.9869 2.27051 34.6407C7.55012 38.4821 12.9657 41.6426 18.5033 44.1958C22.5264 46.6428 26.5485 46.5599 30.5715 44.1958L36.5134 41.1331ZM2.63286 27.5568C1.38934 25.5951 0.622733 23.1034 0.160721 19.8861C0.125325 19.6337 0.23617 19.3934 0.428054 19.2527C0.536105 16.8393 1.70324 15.551 3.92388 14.7565C4.12322 13.0165 5.49808 11.8009 7.18218 11.5094C9.5146 9.1397 13.3243 8.4327 16.4038 9.61382C16.51 9.6548 16.8416 9.82247 17.1415 9.97337C17.1881 9.99665 17.2142 10.0199 17.2291 10.0404C18.2621 9.24495 19.4469 8.82299 20.6262 8.7019C21.4775 8.61527 22.328 8.6842 23.1169 8.88261L27.0394 1.02375C27.3971 0.325141 27.969 -0.342727 29.0802 0.196597C29.3774 0.340976 29.6391 0.563599 29.8133 0.832795C30.3172 1.60592 29.8944 2.14524 29.5106 2.81125L25.2649 9.85134C26.1144 10.4503 26.7925 11.2849 27.0385 12.3114C27.4064 12.4157 27.7594 12.5321 28.0947 12.6616L33.0381 4.4404C33.4507 3.7716 34.0748 3.15217 35.1386 3.77812C35.4236 3.94579 35.6667 4.1889 35.8195 4.47021C36.2601 5.28152 35.7953 5.78545 35.3593 6.41886L30.1989 13.7626C32.0731 15.0779 33.257 17.1196 32.7344 19.4688C32.7065 19.6002 32.7642 19.6486 32.7642 19.7921L32.7586 19.8777C32.7437 20.1395 32.7214 20.4012 32.6934 20.663C32.5295 22.1999 32.1383 23.7313 31.4667 25.1816H30.2036C30.1235 25.1816 30.0443 25.1872 29.9679 25.2002C30.7625 23.7024 31.2059 22.0853 31.3735 20.4608H1.59985C2.0777 23.3428 2.83406 25.5439 4.02262 27.2383C3.52987 27.2793 3.0632 27.3892 2.63286 27.5568ZM24.1499 17.9039C23.7801 17.9039 23.4811 17.6049 23.4811 17.2361C23.4811 16.8663 23.7801 16.5673 24.1499 16.5673H25.6468C26.0166 16.5673 26.3156 16.8663 26.3156 17.2361C26.3156 17.6049 26.0166 17.9039 25.6468 17.9039H24.1499ZM23.7885 13.4645C23.8685 13.5002 23.9406 13.5512 24.0008 13.6148C24.061 13.6783 24.1081 13.7531 24.1394 13.8348C24.1707 13.9166 24.1857 14.0037 24.1833 14.0912C24.181 14.1787 24.1614 14.2648 24.1257 14.3448C24.0901 14.4247 24.039 14.4969 23.9755 14.5571C23.912 14.6173 23.8372 14.6644 23.7554 14.6957C23.6737 14.727 23.5866 14.7419 23.4991 14.7395C23.4116 14.7372 23.3254 14.7176 23.2455 14.682L21.8799 14.0681C21.8 14.0325 21.7279 13.9814 21.6676 13.9179C21.6074 13.8544 21.5603 13.7796 21.529 13.6979C21.4977 13.6161 21.4828 13.529 21.4852 13.4415C21.4875 13.354 21.5071 13.2678 21.5427 13.1879C21.5784 13.1079 21.6294 13.0358 21.693 12.9756C21.7565 12.9154 21.8313 12.8683 21.913 12.837C21.9948 12.8057 22.0819 12.7907 22.1694 12.7931C22.2569 12.7955 22.3431 12.815 22.423 12.8507L23.7885 13.4645ZM16.1812 13.9135C16.0162 13.8467 15.8845 13.7172 15.815 13.5534C15.7454 13.3895 15.7438 13.2048 15.8104 13.0398C15.8774 12.8748 16.0071 12.7431 16.1711 12.6736C16.3351 12.6041 16.5199 12.6024 16.6851 12.6691L18.182 13.2801C18.347 13.3471 18.4787 13.4768 18.5482 13.6408C18.6177 13.8047 18.6193 13.9896 18.5527 14.1548C18.4855 14.3196 18.3557 14.451 18.1918 14.5203C18.0278 14.5896 17.8431 14.5911 17.6781 14.5246L16.1812 13.9135ZM15.6661 17.9039C15.2972 17.9039 14.9973 17.6049 14.9973 17.2361C14.9973 17.1483 15.0146 17.0613 15.0482 16.9801C15.0818 16.899 15.131 16.8253 15.1932 16.7632C15.2553 16.7011 15.329 16.6518 15.4101 16.6182C15.4913 16.5846 15.5782 16.5673 15.6661 16.5673H17.1629C17.5327 16.5673 17.8317 16.8663 17.8317 17.2361C17.8317 17.6049 17.5327 17.9039 17.1629 17.9039H15.6661ZM10.5802 14.8645C10.5003 14.9002 10.4141 14.9198 10.3266 14.9221C10.2391 14.9245 10.152 14.9096 10.0702 14.8783C9.9885 14.847 9.91373 14.7999 9.8502 14.7396C9.78666 14.6794 9.73561 14.6073 9.69996 14.5274C9.6643 14.4474 9.64473 14.3612 9.64237 14.2737C9.64002 14.1862 9.65492 14.0991 9.68623 14.0174C9.71755 13.9356 9.76465 13.8609 9.82486 13.7973C9.88508 13.7338 9.95721 13.6828 10.0372 13.6471L11.4027 13.0333C11.739 12.8833 12.133 13.0342 12.2829 13.3705C12.3186 13.4504 12.3382 13.5366 12.3405 13.6241C12.3429 13.7116 12.328 13.7987 12.2967 13.8804C12.2654 13.9622 12.2183 14.0369 12.158 14.1005C12.0978 14.164 12.0257 14.2151 11.9458 14.2507L10.5802 14.8645ZM7.63209 17.9039C7.26229 17.9039 6.96329 17.6049 6.96329 17.2361C6.96329 16.8663 7.26229 16.5673 7.63209 16.5673H9.12897C9.2168 16.5673 9.30377 16.5846 9.38491 16.6182C9.46605 16.6518 9.53978 16.7011 9.60188 16.7632C9.66399 16.8253 9.71325 16.899 9.74686 16.9801C9.78047 17.0613 9.79777 17.1483 9.79777 17.2361C9.79777 17.6049 9.49783 17.9039 9.12897 17.9039H7.63209ZM1.77497 19.1242L31.4462 19.1233C32.0898 16.0009 28.8632 14.1296 26.2951 13.4943C26.0297 13.4291 25.8201 13.2028 25.7912 12.915C25.658 11.6193 24.4257 10.7251 23.2855 10.3245C22.5124 10.0525 21.6378 9.9389 20.7622 10.0293C19.7282 10.1345 18.6915 10.5276 17.8168 11.2802C17.7548 11.3441 17.6805 11.3949 17.5984 11.4295C17.5163 11.464 17.4281 11.4817 17.339 11.4814C17.026 11.4814 16.279 10.9961 15.9287 10.862C13.2871 9.84855 9.93749 10.481 7.99723 12.5889C7.88812 12.7079 7.73946 12.783 7.57899 12.8004C6.28052 12.9448 5.23913 13.8436 5.23074 15.2008C5.24066 15.3506 5.19995 15.4993 5.11514 15.6231C5.03033 15.747 4.90636 15.8387 4.76314 15.8836C2.98402 16.4397 1.92121 17.1699 1.77497 19.1242ZM4.25269 22.1748C4.20491 22.0417 4.21193 21.8952 4.27219 21.7673C4.33245 21.6394 4.44103 21.5407 4.57405 21.4929C4.8507 21.3942 5.15623 21.5376 5.25589 21.8152C5.6201 22.8249 6.08491 23.7993 6.64472 24.7158C6.79842 24.9673 6.71924 25.2961 6.46774 25.4489C6.21624 25.6026 5.88743 25.5234 5.73374 25.2719C5.13853 24.2967 4.63926 23.2497 4.25269 22.1748ZM6.641 26.5993C6.55524 26.4865 6.51767 26.3444 6.53653 26.204C6.55539 26.0637 6.62913 25.9365 6.7416 25.8504C6.85425 25.7649 6.99618 25.7274 7.13635 25.7463C7.27652 25.7651 7.40352 25.8387 7.48957 25.951C7.92643 26.5229 8.40335 27.0529 8.93802 27.5345C9.04311 27.6294 9.10632 27.7621 9.11383 27.9035C9.12134 28.0449 9.07252 28.1835 8.97807 28.289C8.9312 28.3412 8.87449 28.3837 8.81118 28.414C8.74787 28.4443 8.67921 28.4618 8.60913 28.4655C8.53905 28.4692 8.46892 28.4591 8.40276 28.4356C8.33661 28.4122 8.27571 28.376 8.22357 28.329C7.64606 27.8083 7.11326 27.2159 6.641 26.5993ZM47.0205 25.7582H39.238C38.7834 25.7582 38.4118 26.1289 38.4118 26.5834V41.7162C38.4118 42.1708 38.7834 42.5424 39.238 42.5424H47.0205C47.4741 42.5424 47.8458 42.1708 47.8458 41.7162V26.5834C47.8458 26.1289 47.4741 25.7582 47.0205 25.7582ZM43.1288 28.3057C42.4516 28.3057 41.902 28.8553 41.902 29.5334C41.902 30.2106 42.4516 30.7602 43.1288 30.7602C43.8069 30.7602 44.3555 30.2106 44.3555 29.5334C44.3555 28.8553 43.8069 28.3057 43.1288 28.3057Z" fill="#040273"/>
</g>
<defs>
<clipPath id="clip0_101_2781">
<rect width="47.6916" height="46" fill="white" transform="translate(0.154236)"/>
</clipPath>
</defs>
</svg>
