<svg width="236" height="96" viewBox="0 0 236 96" fill="none" xmlns="http://www.w3.org/2000/svg">
<path fill-rule="evenodd" clip-rule="evenodd" d="M47.6458 5.29848C25.0591 5.29848 6.60202 22.9931 5.36069 45.2863L0.00927734 46.7167C0.523037 20.8282 21.6539 0 47.6458 0C71.6543 0 91.5156 17.7707 94.8118 40.8855L89.6546 42.2639C86.9964 21.4148 69.202 5.29848 47.6458 5.29848ZM89.9943 48.2009C89.7165 71.3696 70.8629 90.0658 47.6458 90.0658C24.7785 90.0658 6.14395 71.9285 5.32243 49.2447L0.0900936 50.6432C1.61799 75.5981 22.3253 95.3642 47.6458 95.3642C73.9599 95.3642 95.2921 74.016 95.2921 47.6821C95.2921 47.3832 95.2892 47.0848 95.284 46.7872L89.9943 48.2009Z" fill="#0E58C8"/>
<path fill-rule="evenodd" clip-rule="evenodd" d="M42.4953 16.6003C43.9521 16.0149 44.9808 14.5881 44.9808 12.9207C44.9808 10.7316 43.2076 8.95703 41.0202 8.95703C38.8327 8.95703 37.0595 10.7316 37.0595 12.9207C37.0595 14.1361 37.6061 15.2238 38.4668 15.9509L37.89 18.5192L31.8549 17.5993L26.4271 10.0234L23.1173 12.3983L28.4526 19.8451L28.2377 21.1483L29.5404 21.3635L29.545 21.3699L29.9935 21.4383L32.2038 21.8033L32.2084 21.7759L45.9419 23.8692L51.0393 30.7517L45.9491 35.2852H52.0751L55.1173 32.5755L59.8767 28.3563L74.1996 30.5864L73.4091 35.2852H77.5391L78.2238 31.2129L87.005 32.5802L88.493 32.8388L87.631 28.5529L60.6118 24.346L60.6133 24.3367L56.6472 23.6817L56.2432 26.1324L54.0967 28.0354L48.2143 20.0928L41.9261 19.1343L42.4953 16.6003ZM68.6698 64.3713H59.4016L72.8378 82.6107L76.1159 80.1923L65.9763 66.4283L68.6698 64.3713ZM53.9957 64.3713H33.9942L50.993 67.1522L56.9912 75.0063L49.3121 79.0851C48.737 78.7589 48.0719 78.573 47.3634 78.573C45.176 78.573 43.4027 80.3477 43.4027 82.5368C43.4027 84.7259 45.176 86.5001 47.3634 86.5001C49.5193 86.5001 51.2727 84.7764 51.3228 82.6312L59.4979 78.2893L65.9963 86.7996L69.2325 84.3249L53.9957 64.3713ZM31.9162 64.3713H27.7615L25.2727 76.8321L35.0096 78.4042L33.3708 88.2458L37.3881 88.9157L39.6998 75.0326L30.0955 73.4824L31.9162 64.3713ZM14.082 64.3713H21.9978C21.9192 66.4913 20.1773 68.1854 18.0399 68.1854C15.9025 68.1854 14.1606 66.4913 14.082 64.3713ZM9.92782 35.2852H14.8638L9.81547 27.907L6.45508 30.2097L9.92782 35.2852ZM25.9015 35.2852H30.0558L30.3781 33.6821L25.6921 27.2342L25.566 27.3259C25.8142 26.8078 25.9532 26.2274 25.9532 25.6145C25.9532 23.4255 24.1799 21.6509 21.9925 21.6509C19.8051 21.6509 18.0319 23.4255 18.0319 25.6145C18.0319 27.8036 19.8051 29.5782 21.9925 29.5782C22.1711 29.5782 22.3469 29.5664 22.5193 29.5435L22.3984 29.6314L26.0328 34.6323L25.9015 35.2852ZM33.5708 35.2852H37.7288L37.9997 33.9296L38.0901 33.4729C39.5678 32.8976 40.615 31.46 40.615 29.7778C40.615 27.5887 38.8418 25.8141 36.6544 25.8141C34.467 25.8141 32.6937 27.5887 32.6937 29.7778C32.6937 30.9789 33.2276 32.0552 34.0707 32.7821L33.5708 35.2852ZM64.4945 35.2852C63.7894 34.6378 62.8493 34.2426 61.8173 34.2426C60.7848 34.2426 59.8447 34.6378 59.1401 35.2852H64.4945ZM53.6026 19.0687C54.8047 19.0687 55.882 18.5328 56.6081 17.6866L72.4734 19.9305L73.2824 10.6066L69.2248 10.254L68.7875 15.293L57.2947 13.6675C56.7196 12.1891 55.2836 11.1414 53.6026 11.1414C51.4152 11.1414 49.6423 12.916 49.6423 15.1051C49.6423 17.2942 51.4152 19.0687 53.6026 19.0687ZM91.973 44.4239C94.6002 44.4239 96.73 42.2926 96.73 39.6635C96.73 37.0343 94.6002 34.903 91.973 34.903C89.3463 34.903 87.2165 37.0343 87.2165 39.6635C87.2165 42.2926 89.3463 44.4239 91.973 44.4239Z" fill="#0E58C8"/>
<path d="M23.164 55.3001C23.164 56.2776 22.9672 57.153 22.5735 57.9259C22.1799 58.6993 21.6551 59.3559 20.999 59.8957C20.3575 60.4355 19.6139 60.8517 18.7684 61.1431C17.9227 61.4349 17.048 61.5808 16.1441 61.5808C15.5464 61.5808 14.9486 61.5078 14.3509 61.3619C13.7531 61.2308 13.1845 61.0849 12.6451 60.9247C12.1203 60.764 11.6391 60.6181 11.2017 60.4869C10.7644 60.341 10.4072 60.2681 10.1302 60.2681C9.95522 60.2681 9.80213 60.3115 9.67091 60.3992C9.55427 60.4722 9.45221 60.5742 9.36478 60.7058C9.29189 60.8369 9.23357 60.9757 9.18983 61.1216C9.16067 61.2818 9.13151 61.4349 9.10235 61.5808H8.51187V53.8553H9.10235C9.21899 54.8037 9.44493 55.672 9.78026 56.4597C10.1156 57.2479 10.5603 57.9259 11.1143 58.4953C11.6683 59.0498 12.3316 59.4875 13.1043 59.8084C13.8916 60.1146 14.781 60.2681 15.7723 60.2681C16.3118 60.2681 16.8439 60.1951 17.3688 60.0492C17.9082 59.8885 18.382 59.6549 18.7902 59.3488C19.213 59.0422 19.5556 58.6631 19.8181 58.2106C20.0805 57.7438 20.2117 57.204 20.2117 56.5913C20.2117 55.949 20.0368 55.373 19.6868 54.8624C19.3515 54.3369 18.9069 53.8553 18.3529 53.4176C17.7988 52.9656 17.1647 52.5422 16.4502 52.1483C15.7359 51.7397 15.0069 51.3315 14.2634 50.9229C13.5344 50.5142 12.8127 50.0837 12.0984 49.6316C11.384 49.1791 10.7498 48.6832 10.1958 48.1435C9.64175 47.589 9.18983 46.9835 8.83991 46.3269C8.50458 45.6558 8.33691 44.8971 8.33691 44.0508C8.33691 43.1317 8.51187 42.3073 8.86178 41.5778C9.22628 40.8483 9.70736 40.2355 10.3051 39.7394C10.9029 39.2288 11.5881 38.8421 12.3608 38.5795C13.1481 38.3169 13.9718 38.1855 14.832 38.1855C15.3422 38.1855 15.8452 38.2512 16.3409 38.3825C16.8512 38.5138 17.3323 38.6597 17.7842 38.8202C18.2508 38.9662 18.6736 39.1048 19.0527 39.2361C19.4317 39.3673 19.7452 39.433 19.993 39.433C20.168 39.433 20.3138 39.3892 20.4304 39.3017C20.5471 39.2142 20.6491 39.1121 20.7365 38.9953C20.824 38.864 20.8896 38.7254 20.9334 38.5795C20.9917 38.4336 21.0354 38.3023 21.0646 38.1855H21.6988V45.8892H21.0646C20.9917 45.0138 20.8022 44.1894 20.496 43.4162C20.1898 42.6283 19.7743 41.9499 19.2495 41.3808C18.7392 40.7972 18.1196 40.3376 17.3906 40.002C16.6617 39.6519 15.8234 39.4768 14.8757 39.4768C14.38 39.4768 13.8989 39.557 13.4324 39.7175C12.9658 39.878 12.543 40.1115 12.164 40.4179C11.7995 40.7097 11.5006 41.0671 11.2673 41.4903C11.0486 41.8988 10.9393 42.3656 10.9393 42.8909C10.9393 43.5037 11.1143 44.0581 11.4642 44.5542C11.8141 45.0502 12.2733 45.5099 12.8419 45.933C13.4251 46.3561 14.0811 46.7646 14.8101 47.1586C15.5391 47.5379 16.2826 47.9318 17.0407 48.3404C17.8134 48.7343 18.5643 49.1572 19.2932 49.6097C20.0222 50.0622 20.6709 50.5653 21.2395 51.1198C21.8227 51.6743 22.2892 52.2942 22.6391 52.9799C22.9891 53.6512 23.164 54.4246 23.164 55.3001Z" fill="#0E58C8"/>
<path d="M46.2378 49.7408C46.2378 51.3315 45.9753 52.8416 45.4505 54.2711C44.9256 55.7011 44.1821 56.9632 43.2199 58.0575C42.2722 59.1371 41.1205 59.9977 39.7646 60.64C38.4233 61.2675 36.9217 61.5808 35.2596 61.5808C33.5976 61.5808 32.0886 61.2675 30.7327 60.64C29.3915 60.0125 28.2397 59.1662 27.2774 58.1014C26.3298 57.0214 25.6009 55.7669 25.0906 54.3369C24.5803 52.9069 24.3252 51.3897 24.3252 49.7847C24.3252 48.1654 24.5949 46.6552 25.1343 45.2545C25.6884 43.8393 26.461 42.6137 27.4524 41.5778C28.4438 40.5273 29.6247 39.7029 30.9952 39.1048C32.3656 38.492 33.8746 38.1855 35.522 38.1855C37.1403 38.1855 38.6055 38.4992 39.9176 39.1266C41.2298 39.7394 42.3524 40.5784 43.2855 41.6435C44.2331 42.6939 44.9621 43.9195 45.4723 45.3202C45.9826 46.7208 46.2378 48.1945 46.2378 49.7408ZM42.4763 49.9597C42.4763 49.1429 42.4326 48.3113 42.3451 47.465C42.2722 46.6187 42.1337 45.8017 41.9296 45.0138C41.7255 44.2259 41.4485 43.4891 41.0986 42.8034C40.7487 42.1177 40.304 41.5194 39.7646 41.0088C39.2252 40.4981 38.5764 40.0969 37.8183 39.8051C37.0747 39.4987 36.1927 39.3455 35.1721 39.3455C34.239 39.3455 33.4153 39.4987 32.701 39.8051C32.0011 40.0969 31.3888 40.4981 30.864 41.0088C30.3391 41.5194 29.9018 42.1177 29.5518 42.8034C29.2019 43.4891 28.9176 44.2186 28.6989 44.9919C28.4949 45.7506 28.3491 46.5385 28.2616 47.3555C28.1741 48.1578 28.1304 48.9383 28.1304 49.6974C28.1304 50.4413 28.1741 51.2218 28.2616 52.0391C28.3491 52.8559 28.5021 53.6584 28.7208 54.4466C28.9395 55.2343 29.2238 55.9858 29.5737 56.7005C29.9236 57.4153 30.361 58.0428 30.8858 58.5825C31.4107 59.1228 32.0303 59.5529 32.7447 59.8738C33.4591 60.1951 34.2828 60.3553 35.2159 60.3553C36.1927 60.3553 37.0455 60.2094 37.7745 59.9176C38.518 59.6258 39.1595 59.232 39.699 58.7361C40.2384 58.2254 40.6831 57.6341 41.033 56.9632C41.3974 56.2776 41.6817 55.5552 41.8859 54.7966C42.1045 54.0232 42.2576 53.2283 42.3451 52.411C42.4326 51.5795 42.4763 50.7622 42.4763 49.9597Z" fill="#0E58C8"/>
<path d="M69.792 39.2569C69.1212 39.2569 68.5747 39.3153 68.1516 39.432C67.729 39.5487 67.4012 39.7457 67.1677 40.0229C66.9342 40.3001 66.7741 40.6649 66.6865 41.1172C66.5993 41.5549 66.5554 42.0947 66.5554 42.7367V51.8412C66.5554 53.3732 66.4096 54.7445 66.118 55.9556C65.8412 57.152 65.3671 58.1657 64.6968 58.9973C64.0407 59.8293 63.1583 60.4711 62.0505 60.9237C60.9422 61.3609 59.5648 61.5798 57.9172 61.5798C56.0947 61.5798 54.6077 61.3537 53.4561 60.9017C52.3188 60.4492 51.4292 59.7926 50.7879 58.932C50.1466 58.0565 49.7092 56.9913 49.4757 55.7368C49.257 54.467 49.1479 53.0227 49.1479 51.4034V42.6054C49.1479 41.9926 49.1188 41.4746 49.0602 41.0515C49.0021 40.6284 48.8706 40.2855 48.6667 40.0229C48.4771 39.7457 48.1855 39.5487 47.7919 39.432C47.4129 39.3153 46.8953 39.2569 46.2393 39.2569V38.666H55.2276V39.2569C54.5858 39.2569 54.0755 39.3153 53.6967 39.432C53.3174 39.5487 53.0258 39.7457 52.8219 40.0229C52.6175 40.2855 52.4793 40.6284 52.4064 41.0515C52.3478 41.4746 52.3188 41.9926 52.3188 42.6054V52.3881C52.3188 53.4242 52.3845 54.416 52.5155 55.3644C52.6613 56.2985 52.9382 57.1224 53.3465 57.8377C53.7696 58.5381 54.3599 59.0998 55.118 59.5227C55.8908 59.9314 56.8966 60.1355 58.1359 60.1355C59.1417 60.1355 60.1041 59.9753 61.0228 59.6539C61.9409 59.333 62.7719 58.8223 63.5156 58.1223C63.8801 57.7866 64.1646 57.3489 64.3685 56.8092C64.5724 56.2546 64.7258 55.6781 64.8278 55.0802C64.9298 54.467 64.9884 53.8619 65.0026 53.2635C65.0317 52.6508 65.0465 52.1182 65.0465 51.6657V42.6054C65.0465 41.9051 65.0098 41.3433 64.9369 40.9202C64.8788 40.4825 64.733 40.1396 64.4995 39.8916C64.2808 39.6435 63.9601 39.4758 63.5375 39.3882C63.1149 39.3007 62.5532 39.2569 61.8537 39.2569V38.666H69.792V39.2569Z" fill="#0E58C8"/>
<path d="M86.3046 60.9899H68.9409V60.3552C69.4655 60.3552 69.932 60.3261 70.3403 60.2675C70.7486 60.1945 71.084 60.0634 71.3461 59.8736C71.6234 59.6696 71.8345 59.3849 71.9803 59.0201C72.1261 58.6554 72.199 58.1738 72.199 57.5758V42.0372C72.199 41.4536 72.1261 40.9794 71.9803 40.6146C71.8345 40.2499 71.6234 39.9726 71.3461 39.783C71.084 39.5787 70.7486 39.4401 70.3403 39.3671C69.932 39.2942 69.4655 39.2577 68.9409 39.2577V38.623H78.6503V39.2577C78.1109 39.2577 77.6373 39.2942 77.229 39.3671C76.8206 39.4401 76.4781 39.5787 76.2012 39.783C75.9239 39.9726 75.7129 40.2499 75.5671 40.6146C75.4213 40.9794 75.3484 41.4536 75.3484 42.0372V56.7662C75.3484 57.3203 75.3922 57.7799 75.4794 58.1447C75.5671 58.4951 75.7129 58.7793 75.9168 58.9982C76.1355 59.2027 76.4271 59.3487 76.7916 59.4359C77.1561 59.5089 77.6154 59.5456 78.1695 59.5456H80.3998C81.479 59.5456 82.3829 59.4869 83.1118 59.3706C83.8408 59.239 84.4674 59.0058 84.9924 58.6701C85.5318 58.3197 86.0059 57.8386 86.4137 57.2254C86.822 56.5984 87.2375 55.7882 87.6606 54.7964L88.229 54.8837L86.3046 60.9899Z" fill="#0E58C8"/>
<path d="M106.316 60.9554C105.267 60.9554 104.166 60.8291 103.012 60.5765C101.873 60.309 100.929 59.9672 100.18 59.5512L100 54.6697L101.776 54.536L102.855 57.9017C104.023 58.6447 105.342 59.0162 106.81 59.0162C107.994 59.0162 108.916 58.7562 109.575 58.2361C110.234 57.7011 110.564 56.9656 110.564 56.0294C110.564 55.1972 110.309 54.5137 109.8 53.9787C109.305 53.4289 108.654 52.9608 107.844 52.5745C107.05 52.1881 106.204 51.8092 105.305 51.4377C104.42 51.0513 103.574 50.6055 102.765 50.1003C101.97 49.5951 101.319 48.971 100.809 48.228C100.315 47.4701 100.067 46.5117 100.067 45.3526C100.067 43.5397 100.809 42.076 102.293 40.9615C103.791 39.847 105.732 39.2898 108.114 39.2898C109.013 39.2898 109.905 39.3641 110.789 39.5127C111.688 39.6464 112.46 39.8619 113.104 40.1591L113.419 44.8845L111.621 45.0182L110.564 41.8308C109.77 41.385 108.818 41.1621 107.71 41.1621C106.571 41.1621 105.649 41.4444 104.945 42.0091C104.241 42.5589 103.888 43.3019 103.888 44.2381C103.888 45.0702 104.143 45.7687 104.653 46.3333C105.162 46.8831 105.822 47.3661 106.631 47.7822C107.44 48.1982 108.294 48.5995 109.193 48.9858C110.092 49.3722 110.946 49.818 111.755 50.3232C112.565 50.8136 113.224 51.4228 113.733 52.151C114.243 52.8791 114.498 53.793 114.498 54.8926C114.498 56.6609 113.733 58.1172 112.205 59.2614C110.691 60.3907 108.729 60.9554 106.316 60.9554Z" fill="#0E58C8"/>
<path d="M130.276 60.6434L130.209 59.1499L132.412 58.6596C132.546 58.3178 132.614 56.5272 132.614 53.2877V47.0689C132.614 43.7403 132.546 41.9348 132.412 41.6525L130.209 41.1621L130.276 39.6464H138.638L138.75 41.1621L136.525 41.6525C136.45 41.8011 136.39 42.336 136.345 43.2573C136.315 44.1787 136.3 45.4492 136.3 47.0689V53.2877C136.3 54.848 136.315 56.0963 136.345 57.0324C136.39 57.9537 136.45 58.4961 136.525 58.6596L138.75 59.1499L138.638 60.6434H130.276ZM117.33 60.6434L117.217 59.1499L119.442 58.6596C119.502 58.4961 119.547 57.9463 119.577 57.0101C119.607 56.0591 119.622 54.8183 119.622 53.2877V47.0689C119.622 45.4789 119.607 44.2158 119.577 43.2796C119.547 42.3435 119.502 41.8011 119.442 41.6525L117.217 41.1621L117.33 39.6464H125.624L125.736 41.1621L123.488 41.6525C123.353 41.9348 123.286 43.7403 123.286 47.0689V53.2877C123.286 56.5272 123.353 58.3178 123.488 58.6596L125.736 59.1499L125.624 60.6434H117.33ZM122.724 51.0365V48.7406C123.234 48.8001 123.923 48.8372 124.792 48.8521C125.661 48.8669 126.732 48.8744 128.006 48.8744C129.25 48.8744 130.299 48.8669 131.153 48.8521C132.007 48.8372 132.674 48.8001 133.153 48.7406V51.0365C132.644 51.0068 131.977 50.977 131.153 50.9473C130.344 50.9027 129.295 50.8804 128.006 50.8804C126.673 50.8804 125.586 50.9027 124.747 50.9473C123.923 50.977 123.249 51.0068 122.724 51.0365Z" fill="#0E58C8"/>
<path d="M140.279 60.6434L140.234 59.1499L142.009 58.6596L149.404 40.4043L151.787 39L159.788 58.6596L161.609 59.1499L161.497 60.6434H153.45L153.383 59.1499L155.608 58.6596L153.517 53.5329L153.113 52.3962L149.292 43.079L150.191 42.8784L146.707 52.3962L146.302 53.4661L144.459 58.6596L146.707 59.1499L146.639 60.6434H140.279ZM145.538 54.2239V52.151C146.003 52.1658 146.602 52.1881 147.336 52.2178C148.071 52.2327 148.977 52.2401 150.056 52.2401C151.135 52.2401 152.049 52.2327 152.798 52.2178C153.547 52.1881 154.139 52.1658 154.574 52.151V54.1793C153.87 54.1793 153.143 54.1719 152.394 54.157C151.644 54.1273 150.865 54.1125 150.056 54.1125C149.262 54.1125 148.498 54.1273 147.763 54.157C147.044 54.1719 146.302 54.1942 145.538 54.2239Z" fill="#0E58C8"/>
<path d="M163.205 60.6434L163.115 59.1499L165.363 58.615C165.363 58.2881 165.37 57.5897 165.385 56.5198C165.415 55.435 165.43 54.3576 165.43 53.2877V47.0689C165.43 45.4789 165.415 44.2158 165.385 43.2796C165.355 42.3435 165.31 41.8011 165.25 41.6525L162.98 41.1621L163.093 39.6464H171.454C176.339 39.6464 178.781 41.3924 178.781 44.8845C178.781 46.6528 178.04 48.1091 176.556 49.2533C175.088 50.3975 173.192 50.9696 170.87 50.9696H168.644V49.2533H170.487C171.866 49.2533 172.952 48.8818 173.747 48.1388C174.556 47.3958 174.96 46.3779 174.96 45.0851C174.96 42.6035 173.634 41.3627 170.982 41.3627H169.116C169.086 41.4965 169.064 41.9274 169.049 42.6555C169.049 43.3688 169.049 44.6839 169.049 46.6008V53.2877C169.049 56.0814 169.109 57.8571 169.229 58.615L171.319 59.1499L171.207 60.6434H163.205ZM180.872 61C179.149 61 177.688 60.5393 176.489 59.618C175.305 58.6819 174.099 57.0696 172.87 54.7812L170.555 50.3901L173.657 49.6768L177.658 55.4276C178.602 56.7798 179.441 57.7457 180.175 58.3252C180.924 58.9048 181.756 59.2911 182.67 59.4843L182.647 60.844C182.108 60.948 181.516 61 180.872 61Z" fill="#0E58C8"/>
<path d="M200.449 60.8217C199.775 60.7474 199.093 60.6954 198.404 60.6657C197.729 60.6508 197.108 60.6434 196.538 60.6434H184.131L184.019 59.1499L186.289 58.6596C186.349 58.4961 186.394 57.9463 186.424 57.0101C186.454 56.0591 186.468 54.8183 186.468 53.2877V47.0689C186.468 45.4789 186.454 44.2158 186.424 43.2796C186.394 42.3435 186.349 41.8011 186.289 41.6525L184.019 41.1621L184.131 39.6464H195.572C196.141 39.6464 196.815 39.639 197.595 39.6241C198.374 39.6093 199.108 39.5721 199.797 39.5127L200.584 44.4164L198.808 44.6616L197.55 41.6302C197.115 41.5262 196.621 41.4742 196.066 41.4742H192.425C191.96 41.4742 191.541 41.489 191.166 41.5187C190.792 41.5336 190.454 41.5559 190.155 41.5856C190.14 41.7788 190.125 42.284 190.11 43.1013C190.095 43.9186 190.087 44.8102 190.087 45.7761V54.7143C190.087 55.591 190.095 56.3934 190.11 57.1216C190.125 57.8349 190.14 58.3178 190.155 58.5704C190.544 58.615 190.934 58.6447 191.323 58.6596C191.728 58.6744 192.208 58.6819 192.762 58.6819H195.751C196.591 58.6819 197.175 58.6744 197.505 58.6596C197.834 58.6447 198.104 58.6076 198.314 58.5481L200.224 55.1155L202 55.4276L200.449 60.8217ZM196.246 53.3546L195.864 50.9696C195.519 50.8656 194.912 50.8136 194.043 50.8136H191.593C191.234 50.8136 190.874 50.8284 190.514 50.8582C190.155 50.873 189.81 50.8953 189.48 50.925V48.8075C190.14 48.8521 190.844 48.8744 191.593 48.8744H194.043C194.972 48.8744 195.579 48.8521 195.864 48.8075L196.246 46.3333H197.954V53.3546H196.246Z" fill="#0E58C8"/>
</svg>
